<?xml version="1.0" encoding="UTF-8" standalone="no"?>
<!-- Generator: Adobe Illustrator 15.1.0, SVG Export Plug-In . SVG Version: 6.00 Build 0)  -->

<svg
   xmlns:dc="http://purl.org/dc/elements/1.1/"
   xmlns:cc="http://creativecommons.org/ns#"
   xmlns:rdf="http://www.w3.org/1999/02/22-rdf-syntax-ns#"
   xmlns:svg="http://www.w3.org/2000/svg"
   xmlns="http://www.w3.org/2000/svg"
   xmlns:sodipodi="http://sodipodi.sourceforge.net/DTD/sodipodi-0.dtd"
   xmlns:inkscape="http://www.inkscape.org/namespaces/inkscape"
   version="1.1"
   id="Layer_1"
   x="0px"
   y="0px"
   width="800"
   height="200"
   viewBox="0 0 800 200"
   enable-background="new 0 0 800 600"
   xml:space="preserve"
   inkscape:version="0.91 r13725"
   sodipodi:docname="maxell-logo.svg"><metadata
     id="metadata31"><rdf:RDF><cc:Work
         rdf:about=""><dc:format>image/svg+xml</dc:format><dc:type
           rdf:resource="http://purl.org/dc/dcmitype/StillImage" /><dc:title></dc:title></cc:Work></rdf:RDF></metadata><defs
     id="defs29" /><sodipodi:namedview
     pagecolor="#0000ff"
     bordercolor="#666666"
     borderopacity="1"
     objecttolerance="10"
     gridtolerance="10"
     guidetolerance="10"
     inkscape:pageopacity="0"
     inkscape:pageshadow="2"
     inkscape:window-width="1853"
     inkscape:window-height="984"
     id="namedview27"
     showgrid="false"
     showguides="false"
     inkscape:zoom="1.0182338"
     inkscape:cx="433.6743"
     inkscape:cy="311.01927"
     inkscape:window-x="0"
     inkscape:window-y="0"
     inkscape:window-maximized="0"
     inkscape:current-layer="Layer_1"
     inkscape:snap-page="true"
     inkscape:snap-grids="false"
     inkscape:snap-to-guides="false" /><g
     id="g11"
     transform="matrix(2.0416072,0,0,2.1547177,-469.3703,-526.79337)"><path
       d="m 589.717,255.115 c 0,-0.06 -0.005,-0.124 -0.005,-0.186 l 0,-9.424 -9.925,0 -0.012,0.017 c -0.074,0 -0.15,-0.017 -0.225,-0.017 -5.615,0 -10.161,4.308 -10.161,9.609 0,0.06 0,0.12 0,0.189 l 0,81.203 20.322,0 0,-81.203 c 10e-4,-0.068 0.006,-0.128 0.006,-0.188 l 0,0 z"
       id="path13"
       inkscape:connector-curvature="0"
       style="clip-rule:evenodd;fill:#ffffff;fill-rule:evenodd" /><path
       d="m 622.309,255.115 c 0,-0.06 -0.011,-0.124 -0.011,-0.186 l 0,-9.424 -9.915,0 -0.015,0.017 c -0.079,0 -0.146,-0.017 -0.223,-0.017 -5.606,0 -10.165,4.308 -10.165,9.609 0,0.06 0.013,0.12 0.013,0.189 l 0,81.203 20.305,0 0,-81.203 c 0,-0.068 0.011,-0.128 0.011,-0.188 l 0,0 z"
       id="path15"
       inkscape:connector-curvature="0"
       style="clip-rule:evenodd;fill:#ffffff;fill-rule:evenodd" /><path
       d="m 559.592,313.187 -20.492,-0.029 0,13.156 -27.079,0 0,-22.049 47.407,0 0,-4.299 0.039,0 0,-26.938 c 0,-5.239 -4.44,-9.494 -9.969,-9.588 l -0.007,-0.015 -47.623,0 c -5.611,0 -10.152,4.294 -10.152,9.595 0,0.062 0,0.124 0,0.181 l 0,53.705 c 0,5.302 4.562,9.602 10.163,9.602 l 47.465,0 c 5.585,0 10.121,-4.251 10.158,-9.515 l 0.09,-0.087 0,-13.719 0,0 z m -20.492,-40.375 0,22.054 -27.079,0 0,-21.665 c 0,-0.058 0.013,-0.12 0.013,-0.181 0,-0.064 -0.013,-0.116 -0.013,-0.173 l 0,-0.035 27.079,0 0,0 z"
       id="path17"
       inkscape:connector-curvature="0"
       style="clip-rule:evenodd;fill:#ffffff;fill-rule:evenodd" /><path
       d="m 404.831,274.041 c 0.042,-0.332 0.057,-0.667 0.057,-1.013 0,-5.239 -4.453,-9.494 -9.982,-9.588 l -0.005,-0.015 -47.625,0 c -5.614,0 -10.158,4.294 -10.158,9.595 0,0.062 0,0.124 0,0.177 l -0.021,13.739 20.337,-0.025 0,-13.709 c 0,-0.058 0.005,-0.12 0.005,-0.181 0,-0.064 -0.005,-0.116 -0.005,-0.173 l 0,-0.035 27.09,0 0,22.054 -47.405,0 0,32.04 c 0,5.302 4.547,9.602 10.167,9.602 l 57.548,0 0,-32.243 0.019,0 0,-9.398 -0.019,0 0,-20.827 -0.003,0 z m -47.399,30.224 27.09,0 0,22.049 -27.09,0 0,-22.049 0,0 z"
       id="path19"
       inkscape:connector-curvature="0"
       style="clip-rule:evenodd;fill:#ffffff;fill-rule:evenodd" /><path
       d="m 326.916,272.904 c -0.066,-5.239 -4.579,-9.479 -10.142,-9.479 l -19.168,0 c -4.214,0 -7.838,2.447 -9.374,5.909 -1.482,-3.333 -4.907,-5.731 -8.941,-5.894 l -0.023,-0.015 -19.555,0 c -4.271,0 -7.928,2.498 -9.428,6.024 l 0,-6.024 -20.294,0 0,73.083 20.294,0 0,-63.494 18.354,0 0,4.576 c 0.019,-0.021 0.026,-0.039 0.048,-0.056 l 0,58.974 20.305,0 0,-58.414 c 0.005,0 0.014,0.013 0.016,0.021 l 0,-5.101 17.728,0 0,63.494 20.307,0 0,-63.488 -0.127,-0.116 0,0 z"
       id="path21"
       inkscape:connector-curvature="0"
       style="clip-rule:evenodd;fill:#ffffff;fill-rule:evenodd" /><path
       d="m 457.576,295.751 28.222,-32.327 -12.179,0 -21.609,24.818 -14.638,-19.725 -0.091,-0.039 c -1.721,-3.013 -5.082,-5.054 -8.949,-5.054 -0.267,0 -0.525,0.015 -0.792,0.027 l -0.061,-0.027 -17.509,0 29.257,39.469 -29.257,33.614 12.009,0 22.813,-26.114 15.808,21.319 0.183,0.116 c 1.771,2.797 5.012,4.679 8.72,4.679 l 18.3,0 -30.227,-40.756 0,0 z"
       id="path23"
       inkscape:connector-curvature="0"
       style="clip-rule:evenodd;fill:#ffffff;fill-rule:evenodd" /></g><g
     inkscape:groupmode="layer"
     id="layer1"
     inkscape:label="Layer 1"
     transform="translate(0,-400)" /><flowRoot
     xml:space="preserve"
     id="flowRoot3360"
     style="font-style:normal;font-weight:normal;font-size:40px;line-height:125%;font-family:sans-serif;letter-spacing:0px;word-spacing:0px;fill:#000000;fill-opacity:1;stroke:none;stroke-width:1px;stroke-linecap:butt;stroke-linejoin:miter;stroke-opacity:1"
     transform="translate(0,-400)"><flowRegion
       id="flowRegion3362"><rect
         id="rect3364"
         width="98.209274"
         height="53.033009"
         x="449.79849"
         y="307.33636" /></flowRegion><flowPara
       id="flowPara3366" /></flowRoot></svg>