<?xml version="1.0" encoding="utf-8"?>
<!-- Generator: Adobe Illustrator 15.1.0, SVG Export Plug-In . SVG Version: 6.00 Build 0)  -->
<!DOCTYPE svg PUBLIC "-//W3C//DTD SVG 1.1//EN" "http://www.w3.org/Graphics/SVG/1.1/DTD/svg11.dtd">
<svg version="1.1" id="Layer_1" xmlns="http://www.w3.org/2000/svg" xmlns:xlink="http://www.w3.org/1999/xlink" x="0px" y="0px"
	 width="800px" height="600px" viewBox="0 0 800 600" enable-background="new 0 0 800 600" xml:space="preserve">
<g>
	<path fill="#FF6600" d="M461.058,332.373c8.801,34.59-13.464,69.801-49.479,78.251l-275.94,64.763
		c-36.014,8.453-72.683-12.929-81.485-47.513L1.923,222.65c-8.802-34.584,13.462-69.798,49.477-78.25l275.937-64.763
		c36.014-8.452,72.686,12.929,81.485,47.513L461.058,332.373z"/>
</g>
<g>
	<path fill="#3387FF" d="M776.154,464.857c-4.228,35.37-37.821,60.991-74.654,56.928l-282.213-31.106
		c-36.829-4.061-63.508-36.319-59.282-71.69l25.088-209.888c4.229-35.37,37.82-60.987,74.656-56.929l282.209,31.107
		c36.833,4.061,63.51,36.322,59.284,71.692L776.154,464.857z"/>
</g>
<g>
	<path fill="#FFFFFF" d="M719.05,256.842c0-0.092-0.009-0.189-0.009-0.283v-14.348h-15.734l-0.018,0.027
		c-0.118,0-0.238-0.027-0.358-0.027c-8.903,0-16.109,6.559-16.109,14.63c0,0.091,0,0.182,0,0.285V380.75h32.218V257.126
		C719.041,257.024,719.05,256.933,719.05,256.842L719.05,256.842z"/>
	<path fill="#FFFFFF" d="M770.72,256.842c0-0.092-0.018-0.189-0.018-0.283v-14.348h-15.72l-0.022,0.027
		c-0.125,0-0.232-0.027-0.355-0.027c-8.887,0-16.113,6.559-16.113,14.63c0,0.091,0.021,0.182,0.021,0.285V380.75h32.19V257.126
		C770.702,257.024,770.72,256.933,770.72,256.842L770.72,256.842z"/>
	<path fill="#FFFFFF" d="M671.291,345.252l-32.487-0.043v20.027h-42.928V331.67h75.154v-6.547h0.063v-41.011
		c0-7.976-7.037-14.454-15.804-14.597l-0.011-0.023h-75.5c-8.896,0-16.095,6.538-16.095,14.607c0,0.095,0,0.189,0,0.276v81.763
		c0,8.07,7.235,14.616,16.112,14.616h75.248c8.854,0,16.045-6.473,16.105-14.485l0.142-0.131V345.252L671.291,345.252z
		 M638.804,283.784v33.575h-42.928v-32.983c0-0.088,0.021-0.183,0.021-0.276c0-0.097-0.021-0.176-0.021-0.263v-0.053H638.804
		L638.804,283.784z"/>
	<path fill="#FFFFFF" d="M425.941,285.654c0.067-0.504,0.09-1.015,0.09-1.542c0-7.976-7.06-14.454-15.823-14.597l-0.007-0.023
		h-75.502c-8.9,0-16.104,6.538-16.104,14.607c0,0.095,0,0.189,0,0.27l-0.034,20.917l32.24-0.038v-20.871
		c0-0.089,0.012-0.183,0.012-0.275c0-0.098-0.012-0.176-0.012-0.263v-0.054h42.95v33.575h-75.154v48.778
		c0,8.07,7.208,14.617,16.118,14.617h91.233V331.67h0.033v-14.306h-0.033v-31.709L425.941,285.654L425.941,285.654z M350.796,331.67
		h42.95v33.566h-42.95V331.67L350.796,331.67z"/>
	<path fill="#FFFFFF" d="M302.419,283.924c-0.105-7.976-7.259-14.432-16.078-14.432h-30.388c-6.681,0-12.426,3.726-14.861,8.997
		c-2.35-5.074-7.779-8.725-14.175-8.973l-0.036-0.023h-31.002c-6.771,0-12.568,3.804-14.946,9.172v-9.172h-32.173v111.263h32.173
		v-96.664h29.097v6.966c0.03-0.032,0.041-0.06,0.076-0.085v89.782h32.191v-88.93c0.007,0,0.021,0.02,0.024,0.033v-7.769h28.107
		v96.664h32.193V284.1L302.419,283.924L302.419,283.924z"/>
	<path fill="#FFFFFF" d="M509.561,318.706l44.741-49.215h-19.308l-34.258,37.784l-23.206-30.03l-0.145-0.06
		c-2.73-4.587-8.057-7.694-14.188-7.694c-0.423,0-0.832,0.023-1.256,0.042l-0.099-0.042h-27.756l46.382,60.087l-46.382,51.175
		h19.039l36.166-39.756l25.061,32.458l0.293,0.174c2.807,4.26,7.944,7.124,13.823,7.124h29.013L509.561,318.706L509.561,318.706z"/>
</g>
</svg>
